HIERARCHY
ROOT root
{
	OFFSET 0.000000 0.000000 0.000000
	CHANNELS 6 Xposition Yposition Zposition Zrotation Yrotation Xrotation
	JOINT lhip
	{
		OFFSET 0.058581 -0.082280 -0.017664
		CHANNELS 3 Zrotation Yrotation Xrotation
		JOINT lknee
		{
			OFFSET 0.043451 -0.386469 0.008037
			CHANNELS 3 Zrotation Yrotation Xrotation
			JOINT lankle
			{
				OFFSET -0.014790 -0.426874 -0.037428
				CHANNELS 3 Zrotation Yrotation Xrotation
				JOINT ltoe
				{
					OFFSET 0.041054 -0.060286 0.122042
					CHANNELS 3 Zrotation Yrotation Xrotation
					End Site
					{
						OFFSET 0.000000 0.000000 0.000000
					}
				}
			}
		}
	}
	JOINT rhip
	{
		OFFSET -0.060310 -0.090513 -0.013543
		CHANNELS 3 Zrotation Yrotation Xrotation
		JOINT rknee
		{
			OFFSET -0.043257 -0.383688 -0.004843
			CHANNELS 3 Zrotation Yrotation Xrotation
			JOINT rankle
			{
				OFFSET 0.019056 -0.420046 -0.034562
				CHANNELS 3 Zrotation Yrotation Xrotation
				JOINT rtoe
				{
					OFFSET -0.034840 -0.062106 0.130323
					CHANNELS 3 Zrotation Yrotation Xrotation
					End Site
					{
						OFFSET 0.000000 0.000000 0.000000
					}
				}
			}
		}
	}
	JOINT lowerback
	{
		OFFSET 0.004439 0.124404 -0.038385
		CHANNELS 3 Zrotation Yrotation Xrotation
		JOINT upperback
		{
			OFFSET 0.004488 0.137956 0.026820
			CHANNELS 3 Zrotation Yrotation Xrotation
			JOINT chest
			{
				OFFSET -0.002265 0.056032 0.002855
				CHANNELS 3 Zrotation Yrotation Xrotation
				JOINT lowerneck
				{
					OFFSET -0.013390 0.211636 -0.033468
					CHANNELS 3 Zrotation Yrotation Xrotation
					JOINT upperneck
					{
						OFFSET 0.010113 0.088937 0.050410
						CHANNELS 3 Zrotation Yrotation Xrotation
						End Site
						{
							OFFSET 0.000000 0.000000 0.000000
						}
					}
				}
				JOINT lclavicle
				{
					OFFSET 0.071702 0.114000 -0.018898
					CHANNELS 3 Zrotation Yrotation Xrotation
					JOINT lshoulder
					{
						OFFSET 0.122921 0.045205 -0.019046
						CHANNELS 3 Zrotation Yrotation Xrotation
						JOINT lelbow
						{
							OFFSET 0.255332 -0.015649 -0.022946
							CHANNELS 3 Zrotation Yrotation Xrotation
							JOINT lwrist
							{
								OFFSET 0.265709 0.012698 -0.007375
								CHANNELS 3 Zrotation Yrotation Xrotation
								End Site
								{
									OFFSET 0.000000 0.000000 0.000000
								}
							}
						}
					}
				}
				JOINT rclavicle
				{
					OFFSET -0.082954 0.112472 -0.023707
					CHANNELS 3 Zrotation Yrotation Xrotation
					JOINT rshoulder
					{
						OFFSET -0.113228 0.046853 -0.008472
						CHANNELS 3 Zrotation Yrotation Xrotation
						JOINT relbow
						{
							OFFSET -0.260127 -0.014369 -0.031269
							CHANNELS 3 Zrotation Yrotation Xrotation
							JOINT rwrist
							{
								OFFSET -0.269108 0.006794 -0.006027
								CHANNELS 3 Zrotation Yrotation Xrotation
								End Site
								{
									OFFSET 0.000000 0.000000 0.000000
								}
							}
						}
					}
				}
			}
		}
	}
}
MOTION
Frames: 16
Frame Time: 0.033333
0.373872 0.156745 0.993680 90.996832 -1.565945 91.607357 3.120535 4.344207 2.197916 -3.153031 0.848181 -3.095584 0.885608 7.219084 -3.087390 0.000000 -0.000000 0.000000 -7.589655 -5.546300 1.796524 1.599381 -6.332827 0.270860 6.157734 -1.562904 -5.524251 0.000000 -0.000000 0.000000 -6.319691 6.211768 -9.143866 3.599658 -2.936952 22.240793 -1.217879 5.710786 -8.720348 -14.562908 5.705087 16.324515 1.552347 10.935562 7.969199 -22.030679 -11.238806 -0.522204 -64.019273 -27.296179 31.760682 44.931616 -71.568608 -52.337146 15.488323 -2.022437 -47.031424 25.070975 11.412635 5.254835 43.457042 24.111548 12.844436 -163.585623 77.649335 -168.330726 -28.866819 17.736080 -11.271655 
0.373956 0.156638 0.993687 91.006312 -1.572599 91.592334 3.115853 4.277816 2.247675 -3.162064 0.916674 -3.128833 0.876539 7.189510 -3.094390 0.000000 -0.000000 0.000000 -7.587007 -5.569230 1.818763 1.593283 -6.377952 0.276082 6.152735 -1.506598 -5.540008 0.000000 -0.000000 0.000000 -6.357095 6.219071 -9.130593 3.590198 -2.970710 22.276533 -1.203280 5.736934 -8.781852 -14.531481 5.675833 16.263055 1.572945 10.969866 8.132036 -21.993437 -11.300986 -0.498312 -64.059777 -27.284973 31.824774 45.101866 -71.560177 -52.397324 15.352539 -2.318043 -47.425569 25.126320 11.419590 5.286844 43.376029 24.072277 12.640995 -163.089715 77.719413 -167.504533 -27.489180 18.303857 -10.756686 
0.374038 0.156609 0.993656 91.022829 -1.565545 91.602579 3.123713 4.258644 2.264761 -3.162057 0.942261 -3.162567 0.876837 7.184363 -3.115338 0.000000 -0.000000 0.000000 -7.584100 -5.582266 1.831111 1.607097 -6.424798 0.259072 6.189682 -1.481319 -5.547534 0.000000 -0.000000 0.000000 -6.357737 6.226071 -9.117127 3.573715 -2.972793 22.212340 -1.183794 5.767734 -8.759669 -14.597066 5.650485 16.350253 1.682641 10.915147 8.012034 -21.988029 -11.376173 -0.458131 -64.091829 -27.350929 31.804242 45.081763 -71.445001 -52.385666 15.437501 -2.301317 -47.423922 25.134569 11.416754 5.267068 43.260748 23.869719 12.443287 -162.814275 77.794908 -166.894692 -26.716133 18.658099 -10.138035 
0.374095 0.156560 0.993646 91.031087 -1.573114 91.615454 3.114374 4.295358 2.257409 -3.152917 0.857351 -3.171544 0.893180 7.204962 -3.094095 0.000000 -0.000000 0.000000 -7.578456 -5.594643 1.815740 1.597314 -6.375015 0.277556 6.154929 -1.536353 -5.577445 0.000000 -0.000000 0.000000 -6.372582 6.231426 -9.113735 3.578523 -2.964571 22.194717 -1.190110 5.726015 -8.710817 -14.580541 5.685692 16.281093 1.657224 10.882670 8.040480 -21.963259 -11.297963 -0.552967 -64.124684 -27.397934 31.852764 44.881933 -71.473827 -52.297588 15.487848 -2.076430 -47.101432 25.061562 11.387258 5.240771 43.338206 23.801513 12.815985 -164.566102 77.557525 -168.992444 -28.139383 18.308340 -10.757256 
0.374152 0.156563 0.993643 91.052337 -1.569798 91.638060 3.106253 4.292455 2.242168 -3.128321 0.846447 -3.194158 0.860339 7.222813 -3.108419 0.000000 -0.000000 0.000000 -7.567596 -5.600667 1.811340 1.595879 -6.343585 0.251576 6.160944 -1.560577 -5.560098 0.000000 -0.000000 0.000000 -6.391724 6.226979 -9.111870 3.592426 -2.963009 22.147758 -1.176074 5.708279 -8.664057 -14.602886 5.673432 16.225015 1.634688 10.883272 8.046233 -21.950009 -11.273255 -0.566672 -64.181872 -27.406809 31.870855 44.828360 -71.494139 -52.273772 15.412543 -2.070272 -47.049808 25.026877 11.353702 5.199903 43.277695 23.764836 12.939846 -165.679464 77.430779 -170.116652 -28.643474 18.099517 -10.991300 
0.374146 0.156651 0.993625 91.090650 -1.574248 91.653045 3.089578 4.266953 2.227228 -3.122575 0.840889 -3.199972 0.900841 7.211829 -3.097828 0.000000 -0.000000 0.000000 -7.567146 -5.622925 1.794314 1.581759 -6.344765 0.262943 6.174861 -1.572538 -5.586610 0.000000 -0.000000 0.000000 -6.390500 6.219366 -9.089317 3.566678 -2.973161 22.097143 -1.164053 5.716419 -8.615671 -14.666104 5.646929 16.201053 1.635765 10.905703 8.027646 -22.011743 -11.346817 -0.590739 -64.186765 -27.345944 31.893521 44.967675 -71.474310 -52.460678 15.362156 -1.971905 -46.875026 25.027012 11.415940 5.196662 43.146596 23.700143 12.923442 -166.230927 77.269442 -170.595760 -28.557394 18.088200 -10.683926 
0.374098 0.156723 0.993630 91.116725 -1.562172 91.646274 3.096842 4.255129 2.236241 -3.119423 0.848226 -3.211973 0.927203 7.210572 -3.085411 0.000000 -0.000000 0.000000 -7.578651 -5.654130 1.818290 1.621311 -6.376912 0.227554 6.162469 -1.547106 -5.555666 0.000000 -0.000000 0.000000 -6.352124 6.206671 -9.029269 3.547729 -2.977962 22.052489 -1.178677 5.726403 -8.616872 -14.678063 5.556755 16.224933 1.620254 10.955820 8.029807 -22.034155 -11.376281 -0.570961 -64.208633 -27.345232 31.874662 44.705265 -71.447316 -52.092739 15.462002 -1.995277 -46.871462 24.965200 11.435598 5.186040 43.126973 23.815031 12.825819 -167.069268 77.287435 -171.205633 -28.014683 18.405564 -10.412250 
0.374057 0.156770 0.993640 91.139164 -1.561630 91.625000 3.092709 4.209652 2.282931 -3.115552 0.862832 -3.260577 0.935386 7.205532 -3.057916 0.000000 -0.000000 0.000000 -7.581253 -5.657985 1.847321 1.619461 -6.390964 0.226714 6.173753 -1.520829 -5.555214 0.000000 -0.000000 0.000000 -6.339925 6.203772 -8.990978 3.511410 -2.985459 22.045209 -1.167890 5.741097 -8.628180 -14.683099 5.445944 16.252388 1.594379 11.027032 8.068374 -22.050979 -11.446600 -0.543982 -64.181393 -27.329221 31.811892 44.484004 -71.429954 -51.803523 15.521673 -2.066390 -46.966384 24.945250 11.491207 5.189394 42.920425 23.946342 12.608682 -167.597009 77.564400 -171.439927 -26.898892 18.866904 -9.837758 
0.373949 0.156771 0.993626 91.130152 -1.549351 91.614035 3.103462 4.232903 2.275693 -3.111536 0.843638 -3.235547 0.917574 7.223884 -3.078538 0.000000 -0.000000 0.000000 -7.561244 -5.671046 1.823288 1.600955 -6.357516 0.273120 6.156157 -1.540707 -5.570277 0.000000 -0.000000 0.000000 -6.310324 6.198441 -8.977229 3.481511 -2.984027 22.074808 -1.168013 5.764085 -8.635908 -14.675850 5.364780 16.260163 1.545727 10.990540 8.094081 -22.023662 -11.513174 -0.582855 -64.175566 -27.261354 31.776319 44.517104 -71.442415 -51.880119 15.578358 -1.956917 -46.682203 24.873618 11.653678 5.265546 42.595797 23.944625 12.650687 -169.397797 77.758352 -173.094158 -27.358491 18.886381 -9.182939 
0.373594 0.156837 0.993689 91.016369 -1.530451 91.512469 3.139432 4.293045 2.335777 -3.147627 0.795637 -3.138370 0.866945 7.320461 -3.152516 0.000000 -0.000000 0.000000 -7.539026 -5.665329 1.830827 1.545282 -6.299564 0.366855 6.147632 -1.541653 -5.563513 0.000000 -0.000000 0.000000 -6.278025 6.122348 -8.900355 3.472279 -2.967781 22.083094 -1.098397 5.841875 -8.569365 -14.800447 5.334700 16.324354 1.504795 11.212956 8.045633 -21.858988 -11.771121 -0.644312 -64.188626 -27.033573 31.524905 44.571045 -71.501874 -51.967825 15.550439 -1.895027 -46.464485 24.546902 12.224762 5.336312 41.488558 24.714206 12.452175 -175.228632 78.352112 -178.577408 -27.152399 19.259902 -7.967878 
0.373328 0.156985 0.993392 90.852831 -1.485629 91.447148 3.196021 4.349079 2.403719 -3.154422 0.966772 -3.148191 0.814167 7.275888 -3.124929 0.000000 -0.000000 0.000000 -7.562600 -5.697093 1.842631 1.579436 -6.287648 0.411043 6.217861 -1.314061 -5.525321 0.000000 -0.000000 0.000000 -6.256311 5.790454 -9.114712 3.425724 -3.031842 22.182771 -0.955853 6.163175 -8.131444 -14.905370 5.331127 16.308661 1.377553 11.432598 7.936772 -21.785046 -12.259244 -0.953546 -64.289268 -26.545924 31.343068 45.562149 -71.396664 -53.806766 15.450212 -2.332374 -45.617767 23.988152 13.229053 5.502912 40.368696 25.664648 12.142891 -178.721830 78.967975 178.199342 -26.844821 20.033738 -6.197800 
0.372812 0.156846 0.993548 90.613523 -1.525344 91.497437 3.148206 4.396009 2.341289 -3.164830 1.063796 -3.122049 0.785255 7.381939 -3.102875 0.000000 -0.000000 0.000000 -7.590995 -5.669242 1.683170 1.553250 -6.149868 0.453619 6.212739 -1.277400 -5.462635 0.000000 -0.000000 0.000000 -6.068966 6.023625 -8.790529 3.269292 -2.882762 22.055192 -1.116298 6.104263 -8.613684 -14.698578 5.107157 16.430294 1.295214 11.621751 8.359560 -21.568777 -12.363969 -0.897626 -64.164167 -26.364126 31.137910 44.299219 -71.662211 -51.723915 15.510387 -2.389795 -46.379827 23.860924 13.648991 5.613634 39.442053 26.864522 11.780713 174.952174 79.625441 173.142618 -26.616002 21.498827 -3.838908 
0.372349 0.156830 0.993503 90.251189 -1.495060 91.399184 3.170380 4.492000 2.479370 -3.173514 1.264519 -3.124281 0.751665 7.442488 -3.144034 0.000000 -0.000000 0.000000 -7.603385 -5.651623 1.666397 1.540221 -6.010764 0.520248 6.279805 -1.072342 -5.447488 0.000000 -0.000000 0.000000 -6.035763 5.851753 -8.818232 3.177434 -2.833477 22.004259 -1.012766 6.532010 -8.328180 -14.723114 4.906005 16.494731 1.248224 11.868412 8.365699 -21.532110 -12.920295 -0.992530 -64.218930 -25.956527 30.858982 44.767090 -71.614464 -52.108706 15.445153 -2.712373 -46.295123 23.489945 14.826121 5.899503 38.033145 28.018816 11.032115 170.989588 80.188044 170.251360 -26.075686 22.874015 -1.348727 
0.370886 0.157097 0.993493 89.741854 -1.538145 91.358248 3.015781 4.584625 2.464843 -3.092442 1.507739 -3.039651 0.835328 7.580391 -3.170429 0.000000 -0.000000 0.000000 -7.724352 -5.386541 1.395390 1.563946 -5.863289 0.762295 6.301417 -0.962031 -5.432115 0.000000 -0.000000 0.000000 -5.745875 5.811699 -8.297702 2.929599 -2.480476 21.504623 -1.157944 6.721603 -8.283977 -14.512267 4.753711 16.538981 1.084551 11.886772 8.385679 -21.248934 -13.183499 -1.202049 -64.521779 -25.627418 30.918494 45.035928 -71.626152 -52.200253 15.391406 -2.839911 -46.549771 23.042482 15.632917 6.025951 37.379544 29.239268 10.845936 166.891559 81.192562 166.775368 -25.831262 23.388711 -0.225721 
0.371019 0.156644 0.993558 89.577670 -1.499457 91.332894 3.063783 4.666393 2.500270 -3.066539 1.493894 -2.999630 0.801207 7.687169 -3.142473 0.000000 -0.000000 0.000000 -7.658226 -5.418094 1.464232 1.544416 -5.691470 0.653382 6.326393 -0.956286 -5.373476 0.000000 -0.000000 0.000000 -5.718090 5.880202 -8.353577 2.836124 -2.427189 21.419727 -1.138970 6.789653 -8.263707 -14.481706 4.598010 16.698110 1.105808 11.952524 8.431769 -21.086086 -13.332737 -1.228224 -64.664293 -25.454709 30.879011 44.919432 -71.748301 -51.841287 15.434497 -2.754123 -46.684480 22.691050 16.189791 6.160362 36.911920 30.159343 10.737652 161.901811 82.545699 162.051797 -25.994751 23.323684 -0.252441 
0.370915 0.156276 0.993814 89.508957 -1.497545 91.361175 3.089562 4.661380 2.427529 -3.093521 1.481111 -2.913176 0.801771 7.821051 -3.169983 0.000000 -0.000000 0.000000 -7.609258 -5.513218 1.412718 1.517853 -5.471521 0.649438 6.271172 -1.032521 -5.306813 0.000000 -0.000000 0.000000 -5.670619 6.178829 -8.305390 2.739742 -2.386006 21.468176 -1.237413 6.728948 -8.658839 -14.520333 4.364246 16.998770 1.206558 11.939506 8.312897 -21.065053 -13.452684 -1.028299 -64.579459 -25.602397 30.789094 44.340501 -71.908425 -51.074207 15.459238 -2.351132 -46.998636 22.672971 16.330367 6.322677 36.534686 30.592248 10.435335 156.724776 83.799609 157.107265 -25.930064 23.144154 -0.055793 
